<?xml version="1.0" encoding="utf-8"?>
<!-- Generator: Adobe Illustrator 16.0.0, SVG Export Plug-In . SVG Version: 6.00 Build 0)  -->
<!DOCTYPE svg PUBLIC "-//W3C//DTD SVG 1.1//EN" "http://www.w3.org/Graphics/SVG/1.1/DTD/svg11.dtd">
<svg version="1.1" id="Layer_1" xmlns="http://www.w3.org/2000/svg" xmlns:xlink="http://www.w3.org/1999/xlink" x="0px" y="0px"
	 width="160px" height="160px" viewBox="0 0 160 160" enable-background="new 0 0 160 160" xml:space="preserve">
<g>
	<g>
		<path fill="#DB2047" d="M11.437,40.237c18.708-17.953,47.991-17.738,66.467,0.434c2.759,2.714,7.004-1.526,4.243-4.242
			C61.328,15.952,28.253,15.785,7.195,35.995C4.398,38.678,8.646,42.916,11.437,40.237L11.437,40.237z"/>
	</g>
</g>
<g>
	<g>
		<path fill="#DB2047" d="M11.437,138.674c18.707-17.953,47.991-17.738,66.467,0.434c2.759,2.715,7.004-1.526,4.243-4.242
			c-20.819-20.477-53.893-20.644-74.952-0.434C4.398,137.115,8.646,141.353,11.437,138.674L11.437,138.674z"/>
	</g>
</g>
<g>
	<g>
		<path fill="#DB2047" d="M82.438,40.237c18.707-17.953,47.99-17.738,66.467,0.434c2.76,2.714,7.004-1.526,4.242-4.242
			c-20.819-20.477-53.893-20.644-74.952-0.434C75.398,38.678,79.646,42.916,82.438,40.237L82.438,40.237z"/>
	</g>
</g>
<g>
	<g>
		<path fill="#DB2047" d="M82.438,138.674c18.707-17.953,47.99-17.737,66.467,0.434c2.76,2.715,7.004-1.526,4.242-4.242
			c-20.819-20.477-53.893-20.644-74.952-0.434C75.398,137.115,79.646,141.353,82.438,138.674L82.438,138.674z"/>
	</g>
</g>
<g>
	<g>
		<path fill="#DB2047" d="M6.316,38.875c0,32.458,0,64.917,0,97.375c0,3.869,6,3.869,6,0c0-32.458,0-64.917,0-97.375
			C12.316,35.006,6.316,35.006,6.316,38.875L6.316,38.875z"/>
	</g>
</g>
<g>
	<g>
		<path fill="#DB2047" d="M148.316,38.875c0,32.458,0,64.917,0,97.375c0,3.869,6,3.869,6,0c0-32.458,0-64.917,0-97.375
			C154.316,35.006,148.316,35.006,148.316,38.875L148.316,38.875z"/>
	</g>
</g>
<g>
	<g>
		<path fill="#DB2047" d="M11.437,64.671C29.68,47.174,58.2,47.398,76.212,65.105c2.76,2.714,7.005-1.527,4.242-4.242
			c-20.356-20.012-52.667-20.186-73.26-0.434C4.398,63.112,8.646,67.349,11.437,64.671L11.437,64.671z"/>
	</g>
</g>
<g>
	<g>
		<path fill="#DB2047" d="M11.437,89.281C29.679,71.783,58.2,72.007,76.212,89.715c2.76,2.714,7.005-1.526,4.242-4.242
			C60.099,65.46,27.788,65.286,7.195,85.039C4.398,87.722,8.646,91.959,11.437,89.281L11.437,89.281z"/>
	</g>
</g>
<g>
	<g>
		<path fill="#DB2047" d="M11.437,113.891C29.68,96.393,58.2,96.616,76.212,114.324c2.76,2.714,7.004-1.526,4.242-4.242
			c-20.356-20.013-52.667-20.187-73.26-0.434C4.398,112.331,8.646,116.568,11.437,113.891L11.437,113.891z"/>
	</g>
</g>
<g>
	<g>
		<path fill="#DB2047" d="M77.316,38.875c0,32.458,0,64.917,0,97.375c0,3.869,6,3.869,6,0c0-32.458,0-64.917,0-97.375
			C83.316,35.006,77.316,35.006,77.316,38.875L77.316,38.875z"/>
	</g>
</g>
<g>
	<g>
		<path fill="#DB2047" d="M100.982,25.875c0,32.458,0,64.917,0,97.375c0,3.869,6,3.869,6,0c0-32.458,0-64.917,0-97.375
			C106.982,22.006,100.982,22.006,100.982,25.875L100.982,25.875z"/>
	</g>
</g>
<g>
	<g>
		<path fill="#DB2047" d="M124.649,25.875c0,32.458,0,64.917,0,97.375c0,3.869,6,3.869,6,0c0-32.458,0-64.917,0-97.375
			C130.649,22.006,124.649,22.006,124.649,25.875L124.649,25.875z"/>
	</g>
</g>
</svg>
